<svg width="10" height="16" viewBox="0 0 10 16" fill="none" xmlns="http://www.w3.org/2000/svg">
<path d="M0 8.47964C0 8.34292 0.0592448 8.19709 0.177734 8.04214L6.3916 0.28335C6.50553 0.137516 6.62858 0.0486491 6.76074 0.016748C6.89746 -0.015153 7.01823 -0.00148112 7.12305 0.0577637C7.23242 0.112451 7.30762 0.203597 7.34863 0.331201C7.39421 0.458805 7.38281 0.609196 7.31445 0.782373L5.27734 6.31948H9.13965C9.28548 6.31948 9.40397 6.36506 9.49512 6.4562C9.58626 6.54279 9.63184 6.65216 9.63184 6.78433C9.63184 6.9256 9.57259 7.07144 9.4541 7.22183L3.24023 14.9875C3.1263 15.1287 3.00098 15.2153 2.86426 15.2472C2.7321 15.2837 2.61133 15.2723 2.50195 15.213C2.39714 15.1583 2.32194 15.0672 2.27637 14.9396C2.23535 14.812 2.24902 14.6593 2.31738 14.4816L4.35449 8.94448H0.492188C0.346354 8.94448 0.227865 8.90119 0.136719 8.8146C0.0455729 8.72345 0 8.6118 0 8.47964Z" fill="#BF9B47"/>
</svg>
